<?xml version="1.0" standalone="no"?><!DOCTYPE svg PUBLIC "-//W3C//DTD SVG 1.1//EN" "http://www.w3.org/Graphics/SVG/1.1/DTD/svg11.dtd"><svg t="1613119977227" class="icon" viewBox="0 0 1024 1024" version="1.1" xmlns="http://www.w3.org/2000/svg" p-id="3514" width="48" height="48" xmlns:xlink="http://www.w3.org/1999/xlink"><defs><style type="text/css"></style></defs><path d="M763.1 718.2H260.9c-22 0-39.9-17.9-39.9-39.9 0-21 17-38 38-38h506c21 0 38 17 38 38 0 22.1-17.8 39.9-39.9 39.9z" fill="#69DAF4" p-id="3515"></path><path d="M752.8 731.8H271.2c-35.2 0-63.8-28.6-63.8-63.7v-27.7c0-7.5 6.1-13.5 13.5-13.5h582c7.5 0 13.5 6.1 13.5 13.5V668c0.2 35.2-28.4 63.8-63.6 63.8z m-518.3-78V668c0 20.2 16.5 36.7 36.7 36.7h481.6c20.2 0 36.7-16.4 36.7-36.7v-14.2h-555z" fill="#3E3A39" p-id="3516"></path><path d="M769.5 672.7H254.4c-27.1 0-43-30.6-27.3-52.7l98.6-139.6c15.7-22.2 41.1-35.4 68.3-35.4h236c27.2 0 52.6 13.2 68.3 35.4L796.9 620c15.6 22.1-0.2 52.7-27.4 52.7z" fill="#CFF4FF" p-id="3517"></path><path d="M573.1 535.1l87.7 124.7-81.6-0.3-64.3-98.7z" fill="#FFFFFF" p-id="3518"></path><path d="M241.2 682.5L209 642.7l9.2-30.6 403.1-175.4 29 3.5 37.9 14 37.5 44-417.3 184.3z" fill="#FFFFFF" p-id="3519"></path><path d="M622.9 447.8L227.1 620l-6.1 20.3 25.4 31.4h59.7l402-177.5-26.3-30.8L649 451z" fill="#FFD939" p-id="3520"></path><path d="M796.9 620l-98.6-139.6c-14.1-20-36.4-32.2-60.5-34.5 4.7 4.2 9.1 8.9 12.8 14.2L768.5 627c7.6 10.7-0.1 25.5-13.2 25.5H223.9c5 11.5 16 20.2 30.5 20.2h515.1c27.2 0 43-30.6 27.4-52.7z" fill="#FFFFFF" p-id="3521"></path><path d="M698.7 351c-4.5 0-8.8-2.2-11.4-6.2-4-6.3-2.2-14.7 4.1-18.7l18.9-12.2c6.3-4.1 14.7-2.2 18.7 4.1s2.2 14.7-4.1 18.7L706 348.9c-2.3 1.4-4.8 2.1-7.3 2.1z" fill="#69DAF4" p-id="3522"></path><path d="M588.1 451.2l-344 149.6 111.1-155.9 248.7-0.7z" fill="#5BEF7E" p-id="3523"></path><path d="M708.2 403.3c-4.7 0-9.2-2.4-11.8-6.8-3.7-6.5-1.5-14.8 5-18.5l38.4-22.1c6.5-3.7 14.8-1.5 18.5 5 3.7 6.5 1.5 14.8-5 18.5l-38.4 22.1c-2.1 1.2-4.5 1.8-6.7 1.8z" fill="#69DAF4" p-id="3524"></path><path d="M242.1 639.6L340.7 500c15.7-22.2 41.1-35.4 68.3-35.4h236c24.5 0 47.3 11.2 63.1 29.6l-9.8-13.8C682.6 458.2 657.2 445 630 445H394c-27.2 0-52.6 13.2-68.3 35.4L227.1 620c-11.9 16.9-5.4 38.7 10.3 48-2.6-9.1-1.6-19.4 4.7-28.4z" fill="#3E3A39" opacity=".5" p-id="3525"></path><path d="M769.5 686.3H254.4c-17.6 0-33.6-9.7-41.7-25.4-8.1-15.6-6.8-34.3 3.3-48.7l98.6-139.6c18.2-25.8 47.8-41.1 79.4-41.1h236c31.5 0 61.2 15.4 79.4 41.1L808 612.2c10.2 14.4 11.4 33.1 3.3 48.7-8.2 15.7-24.1 25.4-41.8 25.4zM394 458.5c-22.7 0-44.1 11.1-57.2 29.7l-98.6 139.6c-4.4 6.2-4.9 13.9-1.4 20.7 3.5 6.7 10.1 10.7 17.7 10.7h515.1c7.6 0 14.2-4 17.7-10.7 3.5-6.7 3-14.5-1.4-20.7l-98.6-139.6c-13.1-18.6-34.5-29.7-57.2-29.7H394z" fill="#3E3A39" p-id="3526"></path><path d="M501.1 325c-9.4 7.1-17.4 16-23.6 26.5-3.7 6.1-6.7 12.8-8.9 19.9-4.6 14.7-5 29.6-2.6 43.8l-0.3-0.1 1.2 4.9c0.6 2.7 1.1 5.4 1.9 8l23 94.4c5.4 22.2 32.5 30.8 49.7 15.7l73.4-64.5c1.6-1.2 3-2.6 4.5-3.9l4.1-3.6-0.3-0.1c15.6-15.4 26.8-35.8 28-61.6 1.7-37.1-19.3-73.5-53-89.4-19.5-9.2-40.1-11.2-59.2-7.3a92.81 92.81 0 0 0-37.9 17.3" fill="#FF382E" p-id="3527"></path><path d="M521.6 559.1c-4.5 0-9-0.7-13.4-2.1-14.8-4.7-25.9-16.5-29.5-31.5l-23-94.4c-0.5-1.5-1.1-4-1.6-6.4l-1.5-6.5c-0.3-1.2-0.4-2.4-0.4-3.6-2.4-16.4-1.2-32.3 3.5-47.3 2.5-8 5.9-15.6 10.2-22.7 7-11.8 16.2-22 27.1-30.3 12.8-9.7 27.8-16.6 43.5-19.8 22.8-4.7 46.2-1.8 67.7 8.3 38.3 18 62.7 59.1 60.7 102.2-1.2 25.9-11.5 49.6-30 68.6-0.6 1-1.4 1.8-2.3 2.6l-4.1 3.6c-2.5 2.3-3.8 3.4-5.1 4.5l-72.7 63.9c-8.4 7.1-18.6 10.9-29.1 10.9z m-42.1-144.8l0.6 2.4c0.8 3.8 1.2 5.5 1.7 7.1l23.3 95.3c1.4 5.9 5.6 10.3 11.4 12.1 5.8 1.9 11.7 0.6 16.3-3.4l79.9-70.2c0.4-0.5 0.8-1 1.3-1.4 15-14.7 23-32.4 23.9-52.5 1.5-32.3-16.7-63.1-45.2-76.5-16.1-7.6-33.6-9.7-50.7-6.2-11.7 2.4-23 7.5-32.5 14.8-8.2 6.2-15 13.8-20.2 22.6-3.1 5.3-5.7 11-7.6 17-3.7 11.7-4.4 24.3-2.2 37.4-0.1 0.5-0.1 1 0 1.5z m21.6-89.3h0.3-0.3z" fill="#3E3A39" p-id="3528"></path><path d="M557 402.2m-39.9 0a39.9 39.9 0 1 0 79.8 0 39.9 39.9 0 1 0-79.8 0Z" fill="#FFFFFF" p-id="3529"></path><path d="M557 455.7c-5.3 0-10.7-0.8-16-2.5-28.1-8.9-43.8-38.9-34.9-67.1 8.8-28.1 38.9-43.8 67-34.9 28.1 8.9 43.8 38.9 34.9 67.1-7.2 22.8-28.3 37.4-51 37.4z m0-79.9c-11.2 0-21.6 7.2-25.2 18.4-4.4 13.9 3.4 28.7 17.2 33.1 13.8 4.4 28.7-3.4 33.1-17.2 4.4-13.9-3.4-28.7-17.2-33.1-2.6-0.8-5.2-1.2-7.9-1.2z m38.1 38.4h0.3-0.3z" fill="#3E3A39" p-id="3530"></path><path d="M577.5 563.7l62.5 88.8h-51.9l-47.3-72.6z" fill="#6CD5FF" p-id="3531"></path><path d="M167.8 533.7h-37.4c-3.7 0-6.8-3-6.8-6.8 0-3.7 3-6.8 6.8-6.8h37.4c3.7 0 6.8 3 6.8 6.8s-3 6.8-6.8 6.8z" fill="#F7B52C" p-id="3532"></path><path d="M149.1 552.4c-3.7 0-6.8-3-6.8-6.8v-37.3c0-3.7 3-6.8 6.8-6.8s6.8 3 6.8 6.8v37.3c0 3.8-3.1 6.8-6.8 6.8z" fill="#F7B52C" p-id="3533"></path><path d="M391.3 391.9c-13.3 0-24.2-10.9-24.2-24.2 0-13.4 10.9-24.2 24.2-24.2 13.4 0 24.2 10.9 24.2 24.2 0 13.3-10.9 24.2-24.2 24.2z m0-34.9c-5.9 0-10.7 4.8-10.7 10.7 0 5.9 4.8 10.7 10.7 10.7 5.9 0 10.7-4.8 10.7-10.7-0.1-5.9-4.9-10.7-10.7-10.7z" fill="#2CA6E0" p-id="3534"></path><path d="M131.7 749.3c-13.3 0-24.2-10.9-24.2-24.2 0-13.4 10.9-24.2 24.2-24.2s24.2 10.9 24.2 24.2c0 13.3-10.9 24.2-24.2 24.2z m0-34.9c-5.9 0-10.7 4.8-10.7 10.7 0 5.9 4.8 10.7 10.7 10.7 5.9 0 10.7-4.8 10.7-10.7-0.1-5.9-4.8-10.7-10.7-10.7z" fill="#1EAA39" p-id="3535"></path><path d="M899.3 502.5m-10.5 0a10.5 10.5 0 1 0 21 0 10.5 10.5 0 1 0-21 0Z" fill="#0DAC67" p-id="3536"></path><path d="M225.7 390.6m-10.5 0a10.5 10.5 0 1 0 21 0 10.5 10.5 0 1 0-21 0Z" fill="#FAED00" p-id="3537"></path><path d="M569.6 778.9m-10.5 0a10.5 10.5 0 1 0 21 0 10.5 10.5 0 1 0-21 0Z" fill="#2CA6E0" p-id="3538"></path><path d="M918 653.3h-37.4c-3.7 0-6.8-3-6.8-6.8s3-6.8 6.8-6.8H918c3.7 0 6.8 3 6.8 6.8s-3 6.8-6.8 6.8z" fill="#E95513" p-id="3539"></path><path d="M899.3 671.9c-3.7 0-6.8-3-6.8-6.8v-37.3c0-3.7 3-6.8 6.8-6.8 3.7 0 6.8 3 6.8 6.8v37.3c0 3.8-3 6.8-6.8 6.8z" fill="#E95513" p-id="3540"></path></svg>